<?xml version="1.0" encoding="UTF-8" standalone="no" ?>
<!DOCTYPE svg PUBLIC "-//W3C//DTD SVG 1.1//EN" "http://www.w3.org/Graphics/SVG/1.1/DTD/svg11.dtd">
<svg xmlns="http://www.w3.org/2000/svg" xmlns:xlink="http://www.w3.org/1999/xlink" version="1.1" width="500" height="500" viewBox="0 0 500 500" xml:space="preserve">
<desc>Created with Fabric.js 4.6.0</desc>
<defs>
</defs>
<g transform="matrix(2.69 0 0 1.86 166.36 250)" id="wvMQUEsFi87H_ahcIzXWo"  >
<path style="stroke: none; stroke-width: 1; stroke-dasharray: none; stroke-linecap: butt; stroke-dashoffset: 0; stroke-linejoin: miter; stroke-miterlimit: 4; fill: rgb(0,0,0); fill-rule: nonzero; opacity: 1;" vector-effect="non-scaling-stroke"  transform=" translate(-40, -40)" d="M 41.17 72.5 L 80 40 L 41.17 7.5 L 41.17 28.105 L 0 28.105 L 0 51.952 L 41.17 51.952 L 41.17 72.5 z" stroke-linecap="round" />
</g>
<g transform="matrix(1 0 0 1 266.59 250)" id="BL6amA0OVTE1zPd2DQxpx"  >
<path style="stroke: rgb(229,246,41); stroke-width: 0; stroke-dasharray: none; stroke-linecap: butt; stroke-dashoffset: 0; stroke-linejoin: miter; stroke-miterlimit: 4; fill: rgb(0,0,0); fill-rule: nonzero; opacity: 1;" vector-effect="non-scaling-stroke"  transform=" translate(-175.14, -211.28)" d="M 0 112.63221 C 0 82.76029 11.86657 54.111850000000004 32.98921 32.98921 C 54.111850000000004 11.86657 82.76029 0 112.63221 0 L 237.64779 0 C 267.51971 0 296.16814999999997 11.86657 317.29079 32.98921 C 338.41343 54.111850000000004 350.28000000000003 82.76029 350.28000000000003 112.63221 L 350.28000000000003 309.92779 C 350.28000000000003 372.13284 299.85284 422.56 237.64779000000004 422.56 L 112.63221000000004 422.56 C 50.42716000000004 422.56 4.263256414560601e-14 372.13284 4.263256414560601e-14 309.92779 L 4.263256414560601e-14 304.909 L 29.836770000000044 304.909 L 29.836770000000044 314.27278 C 29.836770000000044 359.38007 66.40345000000005 395.94675 111.51074000000004 395.94675 L 238.76982000000004 395.94675 C 283.87711 395.94675 320.44379000000004 359.38007 320.44379000000004 314.27278 L 320.44379000000004 108.28724000000003 C 320.44379000000004 86.62596000000002 311.83888 65.85186000000002 296.52204000000006 50.535020000000024 C 281.20520000000005 35.218180000000025 260.4311000000001 26.613270000000025 238.76982000000007 26.613270000000025 L 111.51074000000007 26.613270000000025 C 89.84946000000006 26.613270000000025 69.07536000000007 35.218180000000025 53.75852000000007 50.535020000000024 C 38.44168000000007 65.85186000000002 29.83677000000007 86.62596000000002 29.83677000000007 108.28724000000003 L 29.83677000000007 117.65101000000003 L 6.750155989720952e-14 117.65101000000003 z" stroke-linecap="round" />
</g>
</svg>