<?xml version="1.0" encoding="UTF-8" standalone="no" ?>
<!DOCTYPE svg PUBLIC "-//W3C//DTD SVG 1.1//EN" "http://www.w3.org/Graphics/SVG/1.1/DTD/svg11.dtd">
<svg xmlns="http://www.w3.org/2000/svg" xmlns:xlink="http://www.w3.org/1999/xlink" version="1.1" width="500" height="500" viewBox="0 0 500 500" xml:space="preserve">
<desc>Created with Fabric.js 4.6.0</desc>
<defs>
</defs>
<g transform="matrix(1.18 0 0 0.79 250 276.9)" id="veG_mH6Nj7kKJRewyjFHj"  >
<path style="stroke: rgb(113,59,224); stroke-width: 0; stroke-dasharray: none; stroke-linecap: butt; stroke-dashoffset: 0; stroke-linejoin: miter; stroke-miterlimit: 4; fill: rgb(0,0,0); fill-rule: nonzero; opacity: 1;" vector-effect="non-scaling-stroke"  transform=" translate(0, 0)" d="M -173 -86.24531 C -173 -109.25408 -166.89703 -131.32048 -156.03367 -147.59014000000002 C -145.17031 -163.8598 -130.43643 -173.00000000000003 -115.07332 -173.00000000000003 L 115.07332 -173.00000000000003 L 115.07332 -173.00000000000003 C 130.43643 -173.00000000000003 145.17031 -163.85980000000004 156.03367 -147.59014000000002 C 166.89703 -131.32048000000003 173 -109.25408000000002 173 -86.24531000000002 L 173 86.24529999999999 L 173 86.24529999999999 C 173 134.15859 147.06534 172.99998999999997 115.07332 172.99998999999997 L -115.07332 172.99998999999997 L -115.07332 172.99998999999997 C -147.06534 172.99998999999997 -173 134.15858999999998 -173 86.24529999999997 z" stroke-linecap="round" />
</g>
<g transform="matrix(1.35 0 0 1.05 250 137.72)" id="gvMENTaZYB40QoO4Zbhen"  >
<path style="stroke: rgb(36,139,217); stroke-width: 0; stroke-dasharray: none; stroke-linecap: butt; stroke-dashoffset: 0; stroke-linejoin: miter; stroke-miterlimit: 4; fill: rgb(0,0,0); fill-rule: nonzero; opacity: 1;" vector-effect="non-scaling-stroke"  transform=" translate(0, 0)" d="M -48.5 -20.69973 C -48.5 -36.05339 -38.78474 -48.5 -26.80036 -48.5 L 26.80036 -48.5 L 26.80036 -48.5 C 38.78474 -48.5 48.5 -36.053399999999996 48.5 -20.69973 L 48.5 20.699740000000002 L 48.5 20.699740000000002 C 48.5 36.0534 38.78474 48.50001 26.80036 48.50001 L -26.80036 48.50001 L -26.80036 48.50001 C -38.78474 48.50001 -48.5 36.05341 -48.5 20.699740000000002 z" stroke-linecap="round" />
</g>
<g transform="matrix(1.4 0 0 1.4 250 276.9)" id="EK0pmlg7ww3CWwYYi0dod"  >
<path style="stroke: rgb(233,35,104); stroke-width: 0; stroke-dasharray: none; stroke-linecap: butt; stroke-dashoffset: 0; stroke-linejoin: miter; stroke-miterlimit: 4; fill: rgb(255,255,255); fill-rule: nonzero; opacity: 1;" vector-effect="non-scaling-stroke"  transform=" translate(0, 0)" d="M 0 -69 C 38.088 -69 69 -38.088 69 0 C 69 38.088 38.088 69 0 69 C -38.088 69 -69 38.088 -69 0 C -69 -38.088 -38.088 -69 0 -69 z" stroke-linecap="round" />
</g>
<g transform="matrix(1.97 0 0 1.97 250 276.9)" id="b19e7q_FFsRQg2bp5erLX"  >
<path style="stroke: rgb(193,11,119); stroke-width: 0; stroke-dasharray: none; stroke-linecap: butt; stroke-dashoffset: 0; stroke-linejoin: miter; stroke-miterlimit: 4; fill: rgb(0,0,0); fill-rule: nonzero; opacity: 1;" vector-effect="non-scaling-stroke"  transform=" translate(0, 0)" d="M 0 -40 C 22.08 -40 40 -22.08 40 0 C 40 22.08 22.08 40 0 40 C -22.08 40 -40 22.08 -40 0 C -40 -22.08 -22.08 -40 0 -40 z" stroke-linecap="round" />
</g>
<g transform="matrix(1 0 0 1 250 276.9)" id="26FZRrVjWVj9FL_AhF6Hp"  >
<path style="stroke: rgb(113,1,49); stroke-width: 0; stroke-dasharray: none; stroke-linecap: butt; stroke-dashoffset: 0; stroke-linejoin: miter; stroke-miterlimit: 4; fill: rgb(255,255,255); fill-rule: nonzero; opacity: 1;" vector-effect="non-scaling-stroke"  transform=" translate(-26, -26)" d="M 26 0 C 40.352000000000004 0 52 11.648 52 26 C 52 40.352000000000004 40.352000000000004 52 26 52 C 11.648 52 0 40.352000000000004 0 26 C 0 11.648 11.648 0 26 0 z" stroke-linecap="round" />
</g>
<g transform="matrix(0.6 0 0 0.71 112.57 180.62)" id="7P4FlzkFtlWtisIdWnUnD"  >
<path style="stroke: rgb(60,101,111); stroke-width: 0; stroke-dasharray: none; stroke-linecap: butt; stroke-dashoffset: 0; stroke-linejoin: miter; stroke-miterlimit: 4; fill: rgb(255,255,255); fill-rule: nonzero; opacity: 1;" vector-effect="non-scaling-stroke"  transform=" translate(0, 0)" d="M -46.5 -10.42561 C -46.5 -12.399690000000001 -44.62384 -14 -42.30948 -14 L 42.30947 -14 L 42.30947 -14 C 44.62383 -14 46.49999 -12.39969 46.49999 -10.425609999999999 L 46.49999 10.425610000000002 L 46.49999 10.425610000000002 C 46.49999 12.399690000000003 44.62383 14.000000000000004 42.30947 14.000000000000004 L -42.30948 14.000000000000004 L -42.30948 14.000000000000004 C -44.62384 14.000000000000004 -46.5 12.399690000000003 -46.5 10.425610000000002 z" stroke-linecap="round" />
</g>
<g transform="matrix(0.49 0 0 0.86 378.09 144.11)" id="zDoQJACbkurT9L-njzXC7"  >
<path style="stroke: rgb(189,110,216); stroke-width: 0; stroke-dasharray: none; stroke-linecap: butt; stroke-dashoffset: 0; stroke-linejoin: miter; stroke-miterlimit: 4; fill: rgb(0,0,0); fill-rule: nonzero; opacity: 1;" vector-effect="non-scaling-stroke"  transform=" translate(0, 0)" d="M -27.5 -21.77244 C -27.5 -24.93569 -22.9887 -27.5 -17.42373 -27.5 L 17.423740000000002 -27.5 L 17.423740000000002 -27.5 C 22.98871 -27.5 27.500010000000003 -24.93568 27.500010000000003 -21.77244 L 27.500010000000003 21.77244 L 27.500010000000003 21.77244 C 27.500010000000003 24.93569 22.988710000000005 27.5 17.423740000000002 27.5 L -17.42373 27.5 L -17.42373 27.5 C -22.988699999999998 27.5 -27.5 24.93568 -27.5 21.77244 z" stroke-linecap="round" />
</g>
<g transform="matrix(0.86 0 0 0.34 250 123.51)" id="vIQiPoHXSIpjgR6MpaJZY"  >
<path style="stroke: rgb(243,89,236); stroke-width: 0; stroke-dasharray: none; stroke-linecap: butt; stroke-dashoffset: 0; stroke-linejoin: miter; stroke-miterlimit: 4; fill: rgb(255,255,255); fill-rule: nonzero; opacity: 1;" vector-effect="non-scaling-stroke"  transform=" translate(0, 0)" d="M -50 -31.85745 C -50 -41.8773 -46.7987 -50 -42.84969 -50 L 42.84968 -50 L 42.84968 -50 C 46.79869 -50 49.99999 -41.87731 49.99999 -31.85745 L 49.99999 32.68046 L 49.99999 32.68046 C 49.99999 42.245779999999996 46.943909999999995 50.000009999999996 43.17404 50.000009999999996 L -43.17405 50.000009999999996 L -43.17405 50.000009999999996 C -46.94392 50.000009999999996 -50 42.24579 -50 32.68046 z" stroke-linecap="round" />
</g>
</svg>